<svg width="32" height="32" viewBox="0 0 32 32" fill="none" xmlns="http://www.w3.org/2000/svg">
<path d="M16.1141 0.521973C15.5569 0.521973 15.0125 0.725074 14.5935 1.14424L11.4832 4.29014C11.3147 4.38089 11.1721 4.51052 11.0684 4.67041L1.25355 14.4884C0.415483 15.3224 0.415483 16.6922 1.25355 17.5306L14.5935 30.8747C15.4316 31.7087 16.7967 31.7087 17.6347 30.8747L30.9747 17.5306C31.8128 16.6966 31.8128 15.3267 30.9747 14.4884L17.6347 1.14424C17.2157 0.725074 16.6714 0.521973 16.1141 0.521973ZM16.1141 2.76904L29.3504 16.0095L16.1141 29.2499L2.87785 16.0095L12.0361 6.84834L13.9714 8.78428C13.9196 8.9701 13.9023 9.16888 13.9023 9.37198C13.9023 10.1887 14.3473 10.8888 15.0082 11.2733V20.7456C14.3473 21.1302 13.9023 21.8303 13.9023 22.647C13.9023 23.8699 14.8916 24.8595 16.1141 24.8595C17.3367 24.8595 18.3259 23.8699 18.3259 22.647C18.3259 21.8303 17.881 21.1302 17.22 20.7456V12.0685L20.6069 15.4564C20.5593 15.6335 20.5377 15.8193 20.5377 16.0095C20.5377 17.2324 21.527 18.222 22.7496 18.222C23.9721 18.222 24.9614 17.2324 24.9614 16.0095C24.9614 14.7866 23.9721 13.797 22.7496 13.797C22.5595 13.797 22.3737 13.8186 22.1966 13.8661L18.2568 9.9251C18.3043 9.74793 18.3259 9.56211 18.3259 9.37198C18.3259 8.14905 17.3367 7.15948 16.1141 7.15948C15.9111 7.15948 15.7124 7.17676 15.5266 7.22862L13.5913 5.29268L16.1141 2.76904Z" fill="#4361ee"/>
</svg>
