<svg width="32" height="32" viewBox="0 0 32 32" fill="none" xmlns="http://www.w3.org/2000/svg">
<path d="M31.1693 1.0177C30.8938 0.743601 30.5009 0.587158 30.0891 0.587158H2.00975C1.59797 0.587158 1.20504 0.743601 0.929549 1.0177C0.654062 1.2918 0.523568 1.65769 0.568516 2.02229L3.76126 27.6518C3.82506 28.1728 4.23829 28.6085 4.80376 28.752L15.6492 31.515C15.7797 31.5486 15.9146 31.5654 16.048 31.5654C16.1814 31.5654 16.3162 31.5486 16.4467 31.515L27.2922 28.752C27.8577 28.6085 28.2694 28.1728 28.3347 27.6518L31.5289 2.02229C31.5753 1.65769 31.4448 1.2918 31.1693 1.0177ZM24.2111 10.1935H11.2632L11.5706 13.4801H23.8993L22.9743 23.1899L16.0538 25.1526L15.9856 25.1332L9.14195 23.1873L8.76787 19.231H12.1201L12.2666 20.7683L16.09 21.5195L19.8468 20.767L20.2455 16.6128H8.51558L7.60793 7.05174H24.5127L24.2111 10.1935Z" fill="#4361ee"/>
</svg>
