<svg width="32" height="32" viewBox="0 0 32 32" fill="none" xmlns="http://www.w3.org/2000/svg">
<path d="M29.8179 0.586426H2.66657C1.57613 0.586426 0.69104 1.47151 0.69104 2.56196V29.7104C0.69104 30.8008 1.57613 31.6859 2.66657 31.6859H29.815C30.9054 31.6859 31.7905 30.8008 31.7905 29.7133V2.56196C31.7905 1.47151 30.9054 0.586426 29.8179 0.586426ZM17.7217 24.4172C17.7217 27.3762 15.9862 28.724 13.4525 28.724C11.1617 28.724 9.51008 27.1882 8.83614 25.7622L11.1646 24.3536C11.6129 25.149 12.2955 25.7622 13.2789 25.7622C14.219 25.7622 14.7599 25.3949 14.7599 23.966V14.6552H17.7217V24.4172ZM24.1458 28.724C21.5224 28.724 20.0328 27.4022 19.2026 25.7622L21.424 24.2813C22.0285 25.2705 22.688 26.2163 24.0822 26.2163C25.2536 26.2163 25.8668 25.632 25.8668 24.8222C25.8668 23.8561 25.2305 23.5119 23.9433 22.9479L23.2376 22.6441C21.1984 21.7764 19.8419 20.6889 19.8419 18.3865C19.8419 16.2692 21.4587 14.6552 23.9809 14.6552C25.7771 14.6552 27.0672 15.28 27.9985 16.9171L25.8003 18.3315C25.3144 17.4609 24.7937 17.1196 23.9809 17.1196C23.1537 17.1196 22.6302 17.646 22.6302 18.3315C22.6302 19.179 23.1537 19.5203 24.3656 20.0467L25.0714 20.3504C27.475 21.3773 28.8287 22.4272 28.8287 24.7874C28.8287 27.3299 26.83 28.724 24.1458 28.724Z" fill="#4361ee"/>
</svg>
