<svg width="32" height="32" viewBox="0 0 32 32" fill="none" xmlns="http://www.w3.org/2000/svg">
<path d="M22.9103 0.58717C22.6578 0.572107 22.4416 0.787611 22.4324 1.06376C22.4186 1.3399 22.6166 1.57627 22.8691 1.59134H22.8915C23.1348 1.59134 23.3369 1.37999 23.346 1.10886C23.3598 0.832719 23.1628 0.597211 22.9103 0.58717ZM10.2727 0.637182C10.0203 0.607057 9.79012 0.803301 9.76258 1.07945C9.73045 1.35559 9.91447 1.6013 10.1669 1.63644H10.2172C10.4467 1.63644 10.6442 1.45122 10.6717 1.19516C10.7039 0.919015 10.5206 0.667307 10.2727 0.637182ZM21.1126 0.959809C21.0527 0.957613 20.9912 0.969027 20.9315 0.994131C20.6974 1.09455 20.5779 1.38517 20.6697 1.64625C20.7431 1.84206 20.9182 1.9679 21.1019 1.9679C21.1569 1.9679 21.2117 1.9577 21.2668 1.9326C21.501 1.83218 21.6205 1.54144 21.5286 1.28538C21.4598 1.08957 21.2925 0.966399 21.1126 0.959809ZM8.37823 1.01767C8.31913 1.02818 8.26092 1.0516 8.20698 1.08925C7.99123 1.23486 7.92671 1.54658 8.06442 1.78256C8.14706 1.93318 8.29847 2.01791 8.44996 2.01791C8.53259 2.01791 8.61949 1.99273 8.69294 1.9375C8.9087 1.79189 8.97311 1.48115 8.83998 1.24517C8.74014 1.07195 8.55555 0.986129 8.37823 1.01767ZM11.9826 1.22654C11.8044 1.2183 11.6312 1.32641 11.5486 1.51092C11.4384 1.76197 11.5396 2.06314 11.7692 2.18364C11.8288 2.21376 11.8977 2.22875 11.9619 2.22875C12.1364 2.22875 12.3017 2.12315 12.3798 1.9424C12.4853 1.69136 12.3887 1.39509 12.1592 1.27459C12.1018 1.24447 12.0419 1.22929 11.9826 1.22654ZM24.5376 1.36187C24.4206 1.36061 24.3035 1.40811 24.214 1.50602C24.0303 1.70183 24.0304 2.01822 24.2095 2.21404C24.2967 2.31445 24.4156 2.36407 24.5349 2.36407C24.6497 2.36407 24.7696 2.31936 24.8568 2.21894C25.0358 2.02815 25.0403 1.70674 24.8613 1.51092C24.7718 1.41302 24.6547 1.36312 24.5376 1.36187ZM19.3956 1.89533C19.3365 1.90631 19.2783 1.93024 19.2244 1.9679C19.0132 2.11852 18.9486 2.43013 19.0863 2.66611C19.1735 2.81171 19.3248 2.89165 19.4763 2.89165C19.559 2.89165 19.6466 2.86647 19.7247 2.81124C19.9359 2.66564 19.995 2.35489 19.8619 2.11891C19.7586 1.9457 19.5732 1.86238 19.3956 1.89533ZM13.548 2.24738C13.4489 2.24415 13.3515 2.27612 13.2703 2.33849C13.1892 2.40087 13.1287 2.49031 13.0979 2.59342C13.0672 2.69652 13.0677 2.80776 13.0996 2.91049C13.1314 3.01322 13.1928 3.1019 13.2746 3.16329H13.2755L13.2764 3.16427C14.031 3.745 14.8226 4.49652 15.6236 5.36578C14.7002 6.442 13.7813 7.67573 12.8899 9.03726C11.1294 9.20719 9.48988 9.51187 8.00794 9.91983C7.72749 8.714 7.53865 7.58104 7.47177 6.57588C7.46497 6.44906 7.41446 6.32978 7.33044 6.24208C7.24642 6.15437 7.13513 6.10475 7.01899 6.10322C6.95487 6.10228 6.89127 6.11605 6.83231 6.14363C6.77334 6.17122 6.72031 6.21201 6.67664 6.26337C6.63297 6.31474 6.59963 6.37555 6.57875 6.44187C6.55788 6.50819 6.54994 6.57856 6.55545 6.64845C6.62728 7.72796 6.82487 8.92082 7.11672 10.1787C6.21113 10.4682 5.37491 10.798 4.62956 11.1672C4.58871 11.1866 4.55065 11.2123 4.51659 11.2437C4.48872 11.2516 4.46015 11.2521 4.4332 11.2662C4.20367 11.3817 4.10706 11.683 4.21264 11.934C4.29068 12.1148 4.45601 12.2204 4.63045 12.2204C4.69472 12.2204 4.76355 12.2054 4.82322 12.1753C4.84849 12.162 4.86574 12.1396 4.88778 12.1223C4.92932 12.115 4.96975 12.1015 5.00792 12.0821C5.7019 11.7383 6.49033 11.4278 7.35163 11.1525C7.77676 12.7395 8.36015 14.4253 9.09462 16.1547C8.448 17.6781 7.91198 19.1702 7.50405 20.5881C6.58487 20.3017 5.74219 19.9756 5.00882 19.6124H5.00792C5.00762 19.6121 5.00733 19.6117 5.00703 19.6114C5.00613 19.6109 5.00523 19.6109 5.00434 19.6104C4.9499 19.5832 4.89111 19.5679 4.83129 19.5653C4.74029 19.5617 4.65037 19.5878 4.57296 19.6403C4.49555 19.6927 4.43415 19.7692 4.39657 19.8599C4.35899 19.9506 4.34693 20.0515 4.36191 20.1497C4.37689 20.248 4.41825 20.3391 4.48072 20.4116V20.4126C4.52078 20.459 4.56856 20.4966 4.62149 20.5234C4.6249 20.5252 4.62698 20.5285 4.63045 20.5302C4.63824 20.5342 4.64673 20.5348 4.65466 20.5381C5.42836 20.9196 6.30119 21.2583 7.24583 21.554C7.11435 22.0718 6.99432 22.5822 6.89795 23.075C6.88372 23.1401 6.88154 23.2076 6.89151 23.2736C6.90149 23.3396 6.92343 23.4028 6.95605 23.4594C6.98867 23.5161 7.0313 23.565 7.08145 23.6033C7.1316 23.6416 7.18824 23.6686 7.24806 23.6827C7.30788 23.6967 7.36966 23.6976 7.42978 23.6851C7.4899 23.6727 7.54714 23.6472 7.59813 23.6103C7.64913 23.5733 7.69285 23.5256 7.72674 23.4698C7.76062 23.4141 7.78398 23.3516 7.79545 23.2858C7.88836 22.8107 8.00541 22.3158 8.13346 21.8129C9.45905 22.1701 10.9152 22.4372 12.4631 22.6072C13.4861 24.2355 14.5547 25.6874 15.6272 26.9367C15.1654 27.4385 14.7066 27.9086 14.2563 28.3174C14.2092 28.3593 14.1701 28.4109 14.1413 28.4694C14.1126 28.5279 14.0947 28.592 14.0888 28.6581C14.0828 28.7242 14.0889 28.7909 14.1067 28.8544C14.1245 28.9179 14.1536 28.9769 14.1924 29.028C14.2311 29.0791 14.2788 29.1213 14.3326 29.1521C14.3864 29.1829 14.4452 29.2018 14.5057 29.2075C14.5662 29.2133 14.6271 29.2059 14.6849 29.1858C14.7428 29.1656 14.7964 29.1331 14.8427 29.0902C15.3129 28.6632 15.7889 28.1774 16.2656 27.6604C16.9415 28.3946 17.6147 29.0473 18.2749 29.5981C18.2781 29.601 18.2796 29.6051 18.283 29.6079V29.605C18.3307 29.6468 18.3857 29.6777 18.4445 29.696C18.5034 29.7142 18.565 29.7194 18.6257 29.7112C18.6864 29.7031 18.745 29.6817 18.7981 29.6484C18.8512 29.6152 18.8976 29.5706 18.9347 29.5174C18.9718 29.4642 18.9988 29.4035 19.0141 29.3387C19.0295 29.2739 19.0328 29.2064 19.024 29.1402C19.0151 29.074 18.9943 29.0104 18.9626 28.9532C18.931 28.8959 18.8892 28.8461 18.8397 28.8068C18.2116 28.2833 17.5629 27.6533 16.9076 26.9396C17.9804 25.6916 19.0503 24.241 20.0744 22.6131C21.6293 22.4446 23.0883 22.1737 24.4202 21.8168C24.639 22.6739 24.8094 23.4952 24.9258 24.2665C24.9456 24.3979 25.0123 24.5154 25.1112 24.5931C25.1602 24.6316 25.2157 24.6591 25.2744 24.6742C25.3331 24.6892 25.394 24.6915 25.4535 24.6808C25.513 24.6701 25.57 24.6467 25.6213 24.6119C25.6725 24.5771 25.717 24.5316 25.7522 24.478C25.7874 24.4244 25.8125 24.3638 25.8263 24.2996C25.84 24.2353 25.8421 24.1688 25.8323 24.1037C25.7107 23.2978 25.5356 22.447 25.3114 21.5648C26.0906 21.3223 26.8229 21.0521 27.4883 20.7509C27.5448 20.7263 27.5963 20.6896 27.6398 20.6431C27.6833 20.5965 27.7178 20.541 27.7415 20.4797C27.7651 20.4184 27.7774 20.3526 27.7776 20.286C27.7778 20.2195 27.766 20.1536 27.7427 20.0921C27.7194 20.0307 27.6852 19.9749 27.642 19.928C27.5988 19.8811 27.5476 19.8441 27.4912 19.8191C27.4348 19.7941 27.3745 19.7815 27.3136 19.7823C27.2528 19.783 27.1927 19.7969 27.1369 19.8232C26.5037 20.1098 25.7993 20.3693 25.0442 20.6028C24.6341 19.1764 24.1008 17.6798 23.4492 16.1468C24.1851 14.4153 24.7665 12.7318 25.193 11.1427C25.7177 11.3094 26.2249 11.4847 26.6904 11.6781C26.7466 11.7019 26.8065 11.7134 26.8668 11.7119C26.9271 11.7104 26.9865 11.6959 27.0417 11.6692C27.0968 11.6426 27.1466 11.6043 27.1883 11.5566C27.2299 11.509 27.2626 11.4528 27.2844 11.3913C27.3061 11.3298 27.3166 11.2642 27.3152 11.1983C27.3138 11.1323 27.3006 11.0674 27.2762 11.007C27.2519 10.9467 27.2169 10.8922 27.1733 10.8467C27.1297 10.8011 27.0783 10.7654 27.0221 10.7416C27.0208 10.741 27.0198 10.7402 27.0185 10.7396C27.0179 10.7394 27.0173 10.7399 27.0167 10.7396C26.5234 10.5346 25.9899 10.3498 25.4396 10.1748C25.6418 9.30838 25.7996 8.47303 25.8987 7.68693V7.68595V7.68497C25.9085 7.61438 25.9044 7.54231 25.8868 7.47357C25.8691 7.40483 25.8383 7.341 25.7963 7.28633C25.7542 7.23167 25.7021 7.18743 25.6432 7.15658C25.5843 7.12572 25.5201 7.10895 25.4548 7.10738C25.3419 7.10489 25.2321 7.14802 25.1464 7.22853C25.0607 7.30904 25.0052 7.42127 24.9904 7.54376C24.9903 7.54451 24.9896 7.54498 24.9895 7.54572V7.5467C24.9895 7.54703 24.9895 7.54736 24.9895 7.54768C24.8964 8.28687 24.7469 9.08129 24.5538 9.90904C23.0685 9.50241 21.4174 9.20561 19.6539 9.03726C18.7598 7.67327 17.8383 6.43254 16.9121 5.35598C17.5757 4.63353 18.2321 3.99623 18.8675 3.46924C18.945 3.40666 19.0026 3.319 19.032 3.21867C19.0615 3.11833 19.0613 3.01042 19.0315 2.91019C19.0018 2.80997 18.944 2.72253 18.8663 2.66024C18.7885 2.59796 18.6949 2.56399 18.5986 2.56314C18.4953 2.56238 18.3949 2.59969 18.3134 2.66905C17.6406 3.22702 16.9533 3.89291 16.2638 4.64208C15.434 3.74386 14.6079 2.96006 13.8053 2.3425C13.7303 2.28313 13.6406 2.24997 13.548 2.24738ZM7.33459 2.57393C7.15664 2.58122 6.99012 2.70074 6.92126 2.89655C6.82945 3.15262 6.94884 3.44433 7.18755 3.54475C7.24264 3.56986 7.29755 3.58005 7.34804 3.58005C7.53626 3.58005 7.71045 3.45434 7.77931 3.2535C7.87112 2.99744 7.75173 2.70572 7.51302 2.60531C7.45449 2.58146 7.39391 2.57149 7.33459 2.57393ZM25.4414 3.127C25.3829 3.1172 25.3211 3.12022 25.2603 3.13779C25.0124 3.20808 24.8662 3.4787 24.9258 3.7448C24.9809 3.97576 25.1686 4.12725 25.3706 4.12725C25.4073 4.12725 25.4486 4.1216 25.4853 4.11156C25.7286 4.04126 25.8804 3.77077 25.8162 3.49964C25.768 3.30006 25.6168 3.15642 25.4414 3.127ZM7.02706 4.53813C6.77458 4.52307 6.55398 4.72963 6.54021 5.01079C6.52185 5.28694 6.7144 5.52233 6.97147 5.53739C6.98065 5.54241 6.99009 5.5423 6.99927 5.5423C7.23798 5.5423 7.43996 5.33672 7.45832 5.07061C7.4721 4.79447 7.27954 4.55319 7.02706 4.53813ZM25.5732 5.11082C25.3207 5.11082 25.1186 5.33664 25.1186 5.6178C25.1186 5.89395 25.3252 6.11498 25.5777 6.11498C25.8302 6.11498 26.0367 5.88905 26.0367 5.6129C26.0367 5.33676 25.8303 5.11082 25.5732 5.11082ZM16.2692 6.08262C16.9992 6.93444 17.7308 7.8982 18.4506 8.94606C17.7444 8.90361 17.0285 8.87448 16.2952 8.87448C15.5427 8.87448 14.8089 8.90546 14.0851 8.94999C14.8056 7.89804 15.538 6.93811 16.2692 6.08262ZM16.2952 9.87864C17.2747 9.87864 18.2305 9.92126 19.1571 9.99828C19.7954 10.9941 20.4176 12.0582 21.0104 13.1814C21.5339 14.1735 22.0103 15.1646 22.4378 16.1419C22.007 17.128 21.53 18.127 21.0014 19.1279C20.9993 19.1322 20.9972 19.1364 20.9952 19.1407C20.9927 19.1452 20.9903 19.1498 20.988 19.1544C20.5256 20.0294 20.044 20.8629 19.5525 21.6619C18.5036 21.762 17.415 21.8168 16.2952 21.8168C15.1599 21.8168 14.0545 21.7619 12.9921 21.659C12.4992 20.8571 12.0148 20.0248 11.5513 19.1466C11.0195 18.1388 10.5465 17.1345 10.114 16.1419C10.5447 15.1568 11.0195 14.1591 11.5477 13.1589C11.5486 13.1572 11.5495 13.1556 11.5504 13.1539C11.5519 13.1513 11.5534 13.1487 11.5549 13.1461C12.1396 12.0389 12.7534 10.9916 13.3821 10.0081C14.3259 9.92786 15.2963 9.87864 16.2952 9.87864ZM20.338 10.1218C21.7604 10.2926 23.0945 10.5486 24.3054 10.8779C23.9554 12.1764 23.4947 13.5495 22.9255 14.9671C22.5767 14.2082 22.2096 13.4456 21.8057 12.6803C21.3336 11.7858 20.8397 10.9401 20.338 10.1218ZM12.1968 10.1326C11.7052 10.936 11.2225 11.7675 10.7596 12.644C10.7575 12.6479 10.7553 12.652 10.7533 12.6558C10.7528 12.6567 10.7529 12.6578 10.7524 12.6587C10.3457 13.4291 9.97281 14.1973 9.62182 14.9613C9.05849 13.5534 8.59182 12.1821 8.24464 10.8926C9.45018 10.5624 10.7795 10.3059 12.1968 10.1326ZM28.5696 11.53C28.3904 11.5119 28.2099 11.6093 28.1204 11.7938C28.0011 12.0398 28.0883 12.3409 28.3132 12.4714C28.3821 12.5116 28.4558 12.5312 28.5293 12.5312C28.6899 12.5312 28.8501 12.4362 28.9327 12.2655C29.0521 12.0245 28.9648 11.7184 28.7445 11.5879C28.6882 11.5552 28.6294 11.5361 28.5696 11.53ZM3.117 12.2214C3.00108 12.1994 2.87649 12.2254 2.77091 12.3057C2.56433 12.4664 2.51463 12.778 2.66153 13.0039C2.75334 13.1445 2.89489 13.2197 3.0372 13.2197C3.12901 13.2197 3.22097 13.1898 3.29901 13.1245L3.30349 13.1294C3.51007 12.9688 3.56067 12.6523 3.41377 12.4263C3.34032 12.3134 3.23291 12.2433 3.117 12.2214ZM30.0176 12.6381C29.9006 12.6482 29.7873 12.7073 29.7047 12.8127C29.5395 13.0236 29.5666 13.34 29.7594 13.5207C29.8466 13.601 29.9525 13.6413 30.0535 13.6413C30.1866 13.6413 30.3149 13.5814 30.4068 13.4609C30.5674 13.25 30.544 12.9335 30.3512 12.7578C30.2548 12.6674 30.1347 12.6281 30.0176 12.6381ZM16.2952 13.1412C14.7739 13.1412 13.5408 14.4898 13.5408 16.1537C13.5408 17.8176 14.7739 19.1662 16.2952 19.1662C17.8165 19.1662 19.0495 17.8176 19.0495 16.1537C19.0495 14.4898 17.8165 13.1412 16.2952 13.1412ZM1.63761 13.5952C1.52112 13.6153 1.41249 13.6843 1.33904 13.7972C1.19214 14.0232 1.23827 14.3397 1.44484 14.5004C1.52288 14.5606 1.61932 14.5955 1.71113 14.5955C1.85344 14.5955 1.9951 14.5202 2.08232 14.3846C2.23381 14.1587 2.18389 13.8471 1.9819 13.6864C1.87862 13.6036 1.7541 13.5751 1.63761 13.5952ZM31.185 14.1856C31.1256 14.1882 31.0658 14.2035 31.0084 14.2336C30.7788 14.3491 30.6777 14.6455 30.7833 14.8965C30.8614 15.0823 31.0267 15.1878 31.2011 15.1878C31.2654 15.1878 31.3296 15.1728 31.3939 15.1427C31.6234 15.0272 31.7245 14.7259 31.619 14.4749C31.5363 14.2866 31.3632 14.1776 31.185 14.1856ZM1.12834 15.4584C0.876773 15.4734 0.679497 15.7033 0.691699 15.9831C0.7018 16.2532 0.903474 16.4626 1.15076 16.4626H1.16959C1.42207 16.4526 1.6191 16.217 1.60533 15.9409C1.59615 15.6597 1.38082 15.4484 1.12834 15.4584ZM31.2872 16.14C31.1095 16.1586 30.9487 16.2923 30.8936 16.4881V16.493C30.8202 16.7541 30.9534 17.0352 31.1967 17.1206C31.238 17.1357 31.288 17.1412 31.3294 17.1412C31.5267 17.1412 31.7062 17.005 31.7705 16.7891C31.8439 16.5281 31.7107 16.2469 31.4674 16.1615C31.4077 16.1402 31.3465 16.1338 31.2872 16.14ZM1.88776 17.2853C1.7707 17.2715 1.64934 17.3069 1.55064 17.3922C1.35325 17.568 1.32093 17.8844 1.4816 18.1002C1.56882 18.2207 1.70163 18.2856 1.83934 18.2856C1.94034 18.2856 2.04183 18.2501 2.12446 18.1748C2.32186 18.0041 2.35317 17.6885 2.19709 17.4726C2.11675 17.3622 2.00482 17.2992 1.88776 17.2853ZM9.61823 17.3187C9.97266 18.0914 10.3446 18.868 10.756 19.6477C10.756 19.648 10.756 19.6483 10.756 19.6487C11.0954 20.2917 11.4458 20.9104 11.8014 21.5148C10.5897 21.351 9.44531 21.1267 8.39348 20.846C8.7207 19.7155 9.13065 18.5321 9.61823 17.3187ZM22.9273 17.3187C23.4166 18.5357 23.8238 19.7203 24.1521 20.8539C23.0936 21.1344 21.9506 21.3634 20.7316 21.5256C21.0884 20.9201 21.4409 20.3019 21.7815 19.6575C21.7929 19.6375 21.8006 19.6225 21.8093 19.6036C22.2125 18.8387 22.579 18.077 22.9273 17.3187ZM30.3341 17.7913C30.2171 17.7882 30.0987 17.8332 30.0069 17.9286C29.8232 18.1194 29.8191 18.4417 29.9889 18.6425C30.0808 18.743 30.2003 18.7926 30.3243 18.7926C30.439 18.7926 30.5535 18.7476 30.6408 18.6572C30.8244 18.4665 30.8287 18.1452 30.6542 17.9443C30.567 17.8464 30.4512 17.7945 30.3341 17.7913ZM3.11969 18.6151C3.00435 18.6396 2.89765 18.7124 2.8265 18.8279C2.68419 19.0588 2.74355 19.3704 2.95471 19.5261C3.03275 19.5813 3.12033 19.6114 3.20755 19.6114C3.35904 19.6114 3.50139 19.5305 3.58861 19.3849C3.73092 19.1539 3.67604 18.8432 3.46488 18.6925C3.35929 18.6147 3.23503 18.5906 3.11969 18.6151ZM28.7857 18.975C28.7261 18.983 28.6669 19.0036 28.6118 19.0387C28.396 19.1743 28.3183 19.4853 28.4468 19.7212C28.5294 19.8869 28.6852 19.9723 28.8413 19.9723C28.9193 19.9723 29.002 19.9527 29.0708 19.9075C29.2912 19.767 29.3688 19.46 29.2403 19.2241C29.1473 19.0433 28.9645 18.951 28.7857 18.975ZM13.6628 22.7151C14.5207 22.7784 15.3953 22.821 16.2952 22.821C17.1769 22.821 18.0349 22.781 18.8765 22.72C18.0218 24.0195 17.1443 25.1917 16.2692 26.214C15.3947 25.1909 14.5168 24.0146 13.6628 22.7151ZM7.10058 24.6616C6.8481 24.6315 6.61796 24.8327 6.59042 25.1088C6.56747 25.385 6.74678 25.6308 6.99927 25.6609C7.01763 25.6609 7.03111 25.6658 7.04948 25.6658C7.27901 25.6658 7.4811 25.4758 7.50405 25.2147C7.5316 24.9386 7.35306 24.6918 7.10058 24.6616ZM25.5311 25.405C25.2786 25.42 25.086 25.6564 25.0998 25.9325C25.1136 26.1986 25.3155 26.4042 25.5588 26.4042H25.5866C25.8391 26.3892 26.0317 26.1529 26.0179 25.8717C26.0041 25.5956 25.7835 25.3849 25.5311 25.405ZM6.96251 26.6651C6.70543 26.6801 6.51299 26.9165 6.52676 27.1927C6.53594 27.4588 6.74252 27.6692 6.98582 27.6692H7.00823C7.26072 27.6542 7.45416 27.4188 7.44039 27.1426C7.43121 26.8665 7.21499 26.65 6.96251 26.6651ZM25.5732 27.4084C25.3207 27.3732 25.0862 27.5687 25.0541 27.8399C25.0219 28.116 25.1961 28.3675 25.4486 28.4077C25.4669 28.4077 25.4903 28.4126 25.5086 28.4126C25.7336 28.4126 25.9357 28.2272 25.9632 27.9762C25.9999 27.7 25.8211 27.4486 25.5732 27.4084ZM7.33549 28.6342C7.2761 28.6307 7.21495 28.6397 7.15527 28.6636C6.91656 28.754 6.79291 29.0448 6.87554 29.3059C6.9444 29.5118 7.11859 29.6374 7.3068 29.6374C7.3573 29.6374 7.41231 29.628 7.46281 29.6079C7.70152 29.5176 7.82528 29.2256 7.73806 28.9696C7.67609 28.77 7.51366 28.6445 7.33549 28.6342ZM13.5328 29.1255C13.4169 29.1029 13.2932 29.1281 13.1876 29.2059C12.981 29.3666 12.9305 29.6782 13.0728 29.9041C13.1646 30.0447 13.3071 30.1198 13.4494 30.1198C13.5412 30.1198 13.6331 30.0948 13.7157 30.0345C13.9223 29.8739 13.9728 29.5624 13.8304 29.3314C13.757 29.2184 13.6487 29.1481 13.5328 29.1255ZM25.0236 29.3167C24.8458 29.2913 24.6636 29.3821 24.5672 29.5628C24.4433 29.8038 24.5172 30.1097 24.7376 30.2503C24.811 30.2954 24.8891 30.316 24.9671 30.316C25.1278 30.316 25.2789 30.2256 25.3661 30.0649C25.49 29.8239 25.417 29.517 25.1966 29.3814C25.1415 29.3463 25.0828 29.3252 25.0236 29.3167ZM20.1389 29.8129C19.9614 29.7924 19.7809 29.8891 19.6879 30.0698C19.5686 30.3108 19.646 30.6168 19.8663 30.7523C19.9398 30.7925 20.0134 30.8122 20.0914 30.8122C20.2521 30.8122 20.4086 30.7219 20.4913 30.5562C20.6152 30.3152 20.5369 30.0093 20.312 29.8737C20.2569 29.8398 20.1981 29.8197 20.1389 29.8129ZM11.8499 30.1247C11.7901 30.1267 11.7297 30.141 11.6723 30.1698C11.4428 30.2853 11.3417 30.5866 11.4473 30.8377C11.5253 31.0234 11.6907 31.1289 11.8651 31.1289C11.9294 31.1289 11.9936 31.1139 12.0579 31.0838C12.2874 30.9683 12.3885 30.667 12.2829 30.416C12.2037 30.2277 12.0291 30.1189 11.8499 30.1247ZM8.27692 30.2473C8.16101 30.2712 8.05309 30.3432 7.98194 30.4562C7.83963 30.6821 7.89002 30.9988 8.10119 31.1544C8.17923 31.2146 8.27129 31.2446 8.35851 31.2446C8.50541 31.2446 8.64686 31.1686 8.73867 31.023C8.88097 30.7971 8.826 30.4864 8.61942 30.3258C8.51613 30.2479 8.39283 30.2235 8.27692 30.2473ZM23.6339 30.5768C23.5743 30.5717 23.5127 30.5787 23.4518 30.6013C23.2131 30.6867 23.0797 30.9677 23.1578 31.2338C23.222 31.4447 23.4016 31.581 23.5944 31.581C23.6403 31.581 23.6911 31.5705 23.737 31.5555C23.9803 31.4701 24.1082 31.1841 24.0301 30.923C23.9716 30.7234 23.8125 30.5921 23.6339 30.5768ZM21.7124 30.5788C21.5353 30.6103 21.3851 30.7538 21.3404 30.9534C21.2761 31.2245 21.4279 31.495 21.6712 31.5653V31.5604C21.7079 31.5754 21.7492 31.581 21.786 31.581C21.9879 31.581 22.1756 31.4254 22.2307 31.1995C22.2904 30.9284 22.1432 30.6569 21.8953 30.5866C21.8334 30.5703 21.7715 30.5683 21.7124 30.5788ZM10.0701 30.6866C9.81763 30.7117 9.62935 30.9528 9.6523 31.2289C9.67525 31.49 9.87724 31.6859 10.1114 31.6859H10.1526C10.4051 31.6608 10.5935 31.4149 10.5659 31.1387C10.5476 30.8626 10.3226 30.6615 10.0701 30.6866Z" fill="#4361ee"/>
</svg>
