<svg width="32" height="32" viewBox="0 0 32 32" fill="none" xmlns="http://www.w3.org/2000/svg">
<path d="M27.4549 18.5353C26.3683 18.5427 25.4267 18.8912 24.6374 19.4099C24.3488 18.6415 24.0565 17.9652 24.0073 17.4623C23.9501 16.8757 23.8836 16.5255 23.9526 15.826C24.0217 15.1264 24.3252 14.1365 24.3202 14.0626C24.3158 13.9888 24.2524 13.6328 23.6255 13.6262C22.9985 13.6203 22.4624 13.7871 22.399 14.0079C22.3355 14.2286 22.2149 14.7256 22.1402 15.2443C22.0301 16.0027 20.8888 18.7078 20.2401 20.1227C20.028 19.57 19.8477 19.0837 19.8103 18.6987C19.7531 18.1121 19.6866 17.7619 19.7556 17.0624C19.8246 16.3628 20.1282 15.3729 20.1232 15.299C20.1188 15.2252 20.0554 14.8692 19.4285 14.8626C18.8015 14.8567 18.2654 15.0235 18.2019 15.2443C18.1385 15.465 18.0713 15.9811 17.9432 16.4807C17.8145 16.9802 16.2969 21.4918 15.8994 22.661C15.6967 23.2568 15.5207 23.7356 15.3963 24.0626L15.3956 24.0609C15.3956 24.0609 15.3882 24.0825 15.3745 24.1198C15.2681 24.3978 15.2047 24.5521 15.2047 24.5521C15.2047 24.5521 15.2053 24.5546 15.2066 24.5579C15.122 24.7621 15.0318 24.9521 14.987 24.9521C14.9559 24.9521 14.8931 24.4077 15.0007 23.6618C15.2265 22.0968 15.7688 19.6555 15.7638 19.5717C15.7614 19.5285 15.8646 19.1037 15.4093 18.8804C14.9671 18.6647 14.8091 19.0248 14.7687 19.0257C14.7295 19.0265 14.7003 19.1526 14.7003 19.1526C14.7003 19.1526 15.1935 16.4076 13.7599 16.4076C12.8643 16.4076 11.6228 17.7154 11.0108 18.9004C10.6252 19.1808 9.79922 19.7824 8.92288 20.4247C8.58639 20.6712 8.24307 20.9234 7.91716 21.1632C7.89477 21.1309 7.873 21.0977 7.84999 21.0653C6.11222 18.5917 2.9004 16.8425 3.03661 13.5174C3.08637 12.3084 3.40109 9.12531 9.20898 5.26425C13.9664 2.10106 17.7753 2.97152 18.4333 4.9008C19.3737 7.65657 16.3976 12.7789 11.4574 13.5174C9.57469 13.7987 8.58391 12.8254 8.33699 12.4628C8.07763 12.0811 8.03907 12.0636 7.94204 12.1358C7.78406 12.2528 7.8842 12.5897 7.94204 12.7905C8.08944 13.3025 8.69461 14.2112 9.72707 14.6626C10.6351 15.06 12.845 15.2783 15.5182 13.8992C18.5117 12.3541 20.849 8.05653 20.163 4.46433C19.4645 0.810717 14.9242 -0.390005 10.6271 1.64632C8.06954 2.85866 5.30118 4.7614 3.31028 7.24499C0.943086 10.1991 0.566177 12.7698 0.721668 13.8436C1.27459 17.6606 5.21722 20.1459 6.79638 21.9881C6.71864 22.0453 6.64525 22.0992 6.5787 22.1482C5.78694 22.671 2.78161 24.7695 2.02966 26.9868C1.17694 29.5019 2.16524 31.3067 2.82017 31.5498C4.84777 32.3025 6.92886 30.9482 8.04715 28.7227C9.16544 26.498 9.02861 23.6012 8.51549 22.2785C8.50927 22.2619 8.50181 22.2461 8.49559 22.2295C8.70021 22.0677 8.90857 21.9042 9.11506 21.7424C9.51809 21.4271 9.91366 21.1325 10.257 20.8828C10.0648 21.5848 9.92424 22.4262 9.85084 23.6418C9.76501 25.0699 10.2035 26.9154 10.7776 27.6415C11.0301 27.961 11.3342 27.9684 11.527 27.9684C12.195 27.9684 12.4998 27.2274 12.835 26.3503C13.2468 25.2749 13.6119 24.0236 13.6119 24.0236C13.6119 24.0236 13.1535 27.405 14.4024 27.405C14.857 27.405 15.3148 26.6175 15.5188 26.2167C15.5194 26.2209 15.5194 26.2234 15.5194 26.2234C15.5194 26.2234 15.5312 26.1976 15.5542 26.1445C15.6015 26.0483 15.6283 25.9869 15.6283 25.9869C15.6283 25.9869 15.6295 25.9802 15.6307 25.9694C15.8136 25.5462 16.2191 24.5803 16.8274 22.9871C17.6129 20.9292 18.3668 18.3519 18.3668 18.3519C18.3668 18.3519 18.437 18.9825 18.6666 20.0239C18.8015 20.6371 19.0889 21.3151 19.3153 21.9648C19.133 22.3025 19.0211 22.4959 19.0211 22.4959C19.0211 22.4959 19.0223 22.4992 19.0242 22.5058C18.8786 22.7639 18.7151 23.0419 18.544 23.3141C17.9239 24.2999 17.185 25.4251 17.0861 25.7504C16.9698 26.1329 16.9972 26.415 17.2224 26.6407C17.3866 26.8059 17.6795 26.8316 17.9855 26.8042C18.5428 26.7544 18.9352 26.5694 19.1287 26.4574C19.4303 26.3155 19.7817 26.0914 20.1114 25.7678C20.7197 25.1712 21.0866 24.3173 21.0518 23.1863C21.0325 22.5631 20.8832 21.9457 20.6948 21.3624C20.7501 21.2562 20.8055 21.15 20.8608 21.0412C21.8199 19.17 22.5638 17.1146 22.5638 17.1146C22.5638 17.1146 22.6341 17.7453 22.8636 18.7867C22.9799 19.3144 23.2094 19.8895 23.4152 20.4538C22.5134 21.4313 21.9543 22.5672 21.7596 23.3124C21.4007 24.6907 21.6818 25.3156 22.2093 25.4574C22.4481 25.5222 22.7858 25.3761 23.0396 25.2326C23.3555 25.0932 23.7349 24.86 24.0894 24.5123C24.6977 23.9157 25.283 23.0801 25.2475 21.9491C25.2314 21.4346 25.1269 20.9234 24.9851 20.4322C25.7495 20.0073 26.7396 19.7708 28.0004 19.9675C30.7053 20.389 31.2358 22.6419 31.1344 23.5846C31.033 24.5281 30.4658 25.0459 30.2761 25.2027C30.0864 25.3595 30.0286 25.4135 30.0447 25.5296C30.0678 25.6989 30.1555 25.6923 30.3172 25.6558C30.5398 25.606 31.7371 24.889 31.7887 23.1481C31.8534 20.9425 30.2662 18.5153 27.4549 18.5353ZM6.60793 27.912C5.7123 29.2156 4.46029 29.7085 3.92353 29.2936C3.34386 28.8455 3.57337 26.9254 4.673 25.5421C5.34285 24.699 6.20801 23.9223 6.78208 23.4435C6.91269 23.339 7.10425 23.1846 7.33749 22.9979C7.37605 22.9689 7.39782 22.9523 7.39782 22.9523L7.3972 22.9506C7.44198 22.9149 7.48863 22.8776 7.5359 22.8394C7.93582 24.8094 7.54834 26.5437 6.60793 27.912ZM13.1342 21.9922C12.822 23.007 12.1689 25.6035 11.7715 25.4641C11.43 25.3446 11.2223 23.3705 11.7031 21.4288C11.945 20.4513 12.4618 19.2829 12.766 18.829C13.2548 18.0996 13.7935 17.8606 13.9241 18.1569C14.0914 18.5336 13.3301 21.3557 13.1342 21.9922ZM18.5266 25.4251C18.3941 25.5172 18.2729 25.5753 18.2169 25.5305C18.1752 25.4973 18.2716 25.3761 18.2716 25.3761C18.2716 25.3761 18.9458 24.4077 19.212 23.9671C19.3663 23.7107 19.546 23.4062 19.7407 23.066C19.7425 23.1 19.7432 23.134 19.7432 23.1672C19.7407 24.3273 18.901 25.1098 18.5266 25.4251ZM22.6807 24.1613C22.5818 24.0675 22.5986 23.7647 22.9226 22.822C23.0501 22.4519 23.3406 21.8279 23.8463 21.2321C23.9047 21.4769 23.9408 21.7117 23.9396 21.9308C23.9327 23.3904 23.1522 23.9356 22.6807 24.1613Z" fill="#4361ee"/>
</svg>
