<svg width="18" height="21" viewBox="0 0 18 21" fill="none" xmlns="http://www.w3.org/2000/svg">
<path d="M16.5186 19.8309H0.584536C0.259794 19.8309 0 20.0907 0 20.4155C0 20.7402 0.259794 21 0.584536 21H16.5186C16.8433 21 17.1031 20.7402 17.1031 20.4155C17.1031 20.0907 16.8433 19.8309 16.5186 19.8309Z" fill="#7140FF"/>
<path d="M8.14023 16.3973C8.24848 16.5056 8.40002 16.5705 8.55157 16.5705C8.70312 16.5705 8.85466 16.5099 8.96291 16.3973L13.6175 11.7427C13.847 11.5132 13.847 11.1452 13.6175 10.9157C13.3881 10.6862 13.02 10.6862 12.7905 10.9157L9.13611 14.5701V0.584536C9.13611 0.259794 8.87631 0 8.55157 0C8.22683 0 7.96703 0.259794 7.96703 0.584536V14.5701L4.3126 10.9157C4.08312 10.6862 3.71507 10.6862 3.48559 10.9157C3.25611 11.1452 3.25611 11.5132 3.48559 11.7427L8.14023 16.3973Z" fill="#7140FF"/>
</svg>
