<svg width="27" height="26" viewBox="0 0 27 26" fill="none" xmlns="http://www.w3.org/2000/svg">
<path d="M8.39084 0C4.23865 0 0.859863 3.37879 0.859863 7.53097V17.9585C0.859863 22.1107 4.23865 25.4894 8.39084 25.4894H18.8183C22.9705 25.4894 26.3493 22.1107 26.3493 17.9585V7.53097C26.3493 3.37879 22.9705 0 18.8183 0H8.39084ZM8.39084 1.15861H18.8183C22.3443 1.15861 25.1907 4.00504 25.1907 7.53097V17.9585C25.1907 21.4844 22.3443 24.3308 18.8183 24.3308H8.39084C4.8649 24.3308 2.01847 21.4844 2.01847 17.9585V7.53097C2.01847 4.00504 4.8649 1.15861 8.39084 1.15861ZM20.5563 4.63444C20.249 4.63444 19.9543 4.75651 19.737 4.97379C19.5197 5.19108 19.3976 5.48577 19.3976 5.79306C19.3976 6.10034 19.5197 6.39504 19.737 6.61232C19.9543 6.8296 20.249 6.95167 20.5563 6.95167C20.8635 6.95167 21.1582 6.8296 21.3755 6.61232C21.5928 6.39504 21.7149 6.10034 21.7149 5.79306C21.7149 5.48577 21.5928 5.19108 21.3755 4.97379C21.1582 4.75651 20.8635 4.63444 20.5563 4.63444ZM13.6046 6.37236C10.0921 6.37236 7.23222 9.23223 7.23222 12.7447C7.23222 16.2572 10.0921 19.1171 13.6046 19.1171C17.1171 19.1171 19.9769 16.2572 19.9769 12.7447C19.9769 9.23223 17.1171 6.37236 13.6046 6.37236ZM13.6046 7.53097C16.4909 7.53097 18.8183 9.85839 18.8183 12.7447C18.8183 15.6311 16.4909 17.9585 13.6046 17.9585C10.7182 17.9585 8.39084 15.6311 8.39084 12.7447C8.39084 9.85839 10.7182 7.53097 13.6046 7.53097Z" fill="white"/>
</svg>
