<svg width="78" height="35" viewBox="0 0 78 35" fill="none" xmlns="http://www.w3.org/2000/svg">
<path d="M1.752 34C1.432 34 1.144 33.888 0.888 33.664C0.664 33.44 0.552 33.152 0.552 32.8V1.6C0.552 1.248 0.664 0.959998 0.888 0.735999C1.144 0.511998 1.432 0.399998 1.752 0.399998H6.216C6.696 0.399998 7.048 0.527998 7.272 0.783998C7.528 1.04 7.704 1.232 7.8 1.36L16.632 17.632L25.56 1.36C25.624 1.232 25.768 1.04 25.992 0.783998C26.248 0.527998 26.616 0.399998 27.096 0.399998H31.56C31.912 0.399998 32.2 0.511998 32.424 0.735999C32.648 0.959998 32.76 1.248 32.76 1.6V32.8C32.76 33.152 32.648 33.44 32.424 33.664C32.2 33.888 31.912 34 31.56 34H26.664C26.344 34 26.072 33.888 25.848 33.664C25.624 33.44 25.512 33.152 25.512 32.8V13.408L19.416 24.832C19.256 25.12 19.048 25.376 18.792 25.6C18.536 25.824 18.2 25.936 17.784 25.936H15.528C15.112 25.936 14.776 25.824 14.52 25.6C14.264 25.376 14.056 25.12 13.896 24.832L7.8 13.408V32.8C7.8 33.152 7.688 33.44 7.464 33.664C7.24 33.888 6.968 34 6.648 34H1.752ZM51.1121 34.48C49.3201 34.48 47.6241 34.256 46.0241 33.808C44.4241 33.36 43.0001 32.688 41.7521 31.792C40.5041 30.864 39.5121 29.728 38.7761 28.384C38.0721 27.04 37.6881 25.472 37.6241 23.68C37.6241 23.392 37.7201 23.152 37.9121 22.96C38.1041 22.736 38.3601 22.624 38.6801 22.624H44.1521C44.5681 22.624 44.8881 22.736 45.1121 22.96C45.3681 23.184 45.5601 23.504 45.6881 23.92C45.8481 24.944 46.1841 25.776 46.6961 26.416C47.2081 27.056 47.8481 27.536 48.6161 27.856C49.4161 28.144 50.3121 28.288 51.3041 28.288C53.1281 28.288 54.5201 27.696 55.4801 26.512C56.4721 25.328 56.9681 23.648 56.9681 21.472V6.784H40.9841C40.6641 6.784 40.3921 6.672 40.1681 6.448C39.9441 6.224 39.8321 5.952 39.8321 5.632V1.6C39.8321 1.248 39.9441 0.959998 40.1681 0.735999C40.3921 0.511998 40.6641 0.399998 40.9841 0.399998H63.5921C63.9441 0.399998 64.2321 0.511998 64.4561 0.735999C64.6801 0.959998 64.7921 1.248 64.7921 1.6V21.664C64.7921 24.416 64.2161 26.752 63.0641 28.672C61.9121 30.56 60.3121 32 58.2641 32.992C56.2161 33.984 53.8321 34.48 51.1121 34.48ZM71.2485 34C70.8965 34 70.6085 33.888 70.3845 33.664C70.1605 33.44 70.0485 33.152 70.0485 32.8V27.424C70.0485 27.072 70.1605 26.784 70.3845 26.56C70.6085 26.336 70.8965 26.224 71.2485 26.224H76.6245C76.9765 26.224 77.2645 26.336 77.4885 26.56C77.7125 26.784 77.8245 27.072 77.8245 27.424V32.8C77.8245 33.152 77.7125 33.44 77.4885 33.664C77.2645 33.888 76.9765 34 76.6245 34H71.2485Z" fill="#8A61FF"/>
</svg>
